<?xml version="1.0" standalone="no"?>
<!DOCTYPE svg PUBLIC "-//W3C//DTD SVG 1.1//EN" "http://www.w3.org/Graphics/SVG/1.1/DTD/svg11.dtd" >
<svg xmlns="http://www.w3.org/2000/svg">
<metadata></metadata>
<defs>
<font id="ai_kelsor" horiz-adv-x="1187" >
<font-face units-per-em="2048" ascent="1638" descent="-410" />
<missing-glyph horiz-adv-x="391" />
<glyph unicode="&#xfb01;" horiz-adv-x="1101" d="M72 768v186h71v197q0 228 115.5 329t333.5 101h371v-180h-371q-71 0 -114 -8.5t-77 -35t-48.5 -76t-14.5 -130.5v-197h201v-186h-201v-770h-195v770h-71zM768 -2v1188h195v-1188h-195z" />
<glyph unicode="&#xfb02;" horiz-adv-x="1116" d="M72 768v186h71v197q0 228 115.5 329t333.5 101h350v-1268q0 -70 28 -95t95 -25v-193q-91 0 -147.5 13t-95.5 48t-54.5 94.5t-15.5 155.5v1090h-160q-71 0 -114 -8.5t-77 -35t-48.5 -76t-14.5 -130.5v-197h201v-186h-201v-770h-195v770h-71z" />
<glyph horiz-adv-x="2048" />
<glyph horiz-adv-x="2048" />
<glyph unicode="&#xd;" horiz-adv-x="2048" />
<glyph unicode=" "  horiz-adv-x="391" />
<glyph unicode="&#x09;" horiz-adv-x="391" />
<glyph unicode="&#xa0;" horiz-adv-x="391" />
<glyph unicode="!" horiz-adv-x="460" d="M133 6v199h195v-199h-195zM133 340v1317h195v-1317h-195z" />
<glyph unicode="&#x22;" horiz-adv-x="759" d="M10 1298q93 70 119.5 146.5t26.5 216.5h194q0 -196 -53 -308.5t-193 -172.5zM389 1298q93 70 119.5 146.5t26.5 216.5h194q0 -196 -53 -308.5t-193 -172.5z" />
<glyph unicode="#" horiz-adv-x="1665" d="M31 492v172h434v274h-434v172h434v494h170v-494h358v494h170v-494h430v-172h-430v-274h430v-172h-428v-451h-172v451h-358v-451h-170v451h-434zM635 664h358v274h-358v-274z" />
<glyph unicode="$" horiz-adv-x="1110" d="M72 1137q0 200 82.5 306t265.5 130v254h196v-248h314v-186q-28 0 -200.5 1t-201.5 1q-80 0 -131.5 -16t-78 -51.5t-35.5 -78.5t-9 -110q0 -70 26 -114t69.5 -62.5t100 -25.5t119 -10t125 -9.5t119 -30.5t100 -66t69.5 -123t26 -196q0 -263 -95 -381t-317 -125v-279h-196 v277h-344v196h502q65 0 108 10t71.5 30t43.5 58t20.5 84.5t5.5 119.5q0 82 -26 134.5t-69.5 76t-100 33.5t-119.5 12.5t-125.5 7.5t-119 25t-100 58t-69.5 113.5t-26 184.5z" />
<glyph unicode="%" horiz-adv-x="1591" d="M51 1112v176q0 154 73.5 228.5t225.5 74.5q156 0 229.5 -73.5t73.5 -229.5v-176q0 -156 -73.5 -229.5t-229.5 -73.5q-153 0 -226 73.5t-73 229.5zM215 1120q0 -81 30 -121.5t105 -40.5q79 0 108 39.5t29 122.5v164q0 82 -29 120t-108 38q-75 0 -105 -38.5t-30 -119.5 v-164zM463 -29l465 1624h147l-461 -1624h-151zM918 303v176q0 154 73.5 228.5t225.5 74.5q156 0 229.5 -73.5t73.5 -229.5v-176q0 -156 -73.5 -229.5t-229.5 -73.5q-153 0 -226 73.5t-73 229.5zM1081 311q0 -81 30.5 -121t105.5 -40q79 0 108 39.5t29 121.5v164 q0 82 -29 120t-108 38q-75 0 -105.5 -39t-30.5 -119v-164z" />
<glyph unicode="&#x26;" horiz-adv-x="1552" d="M180 375v143q0 202 156 328q-154 127 -154 328v26q0 180 123 302t301 122t301 -123t123 -301v-84h-194q0 133 -64.5 223.5t-165.5 90.5q-95 0 -162 -71t-67 -171q0 -98 66 -173t163 -75h697v-195h-273v-331q0 -121 75.5 -195t197.5 -74v-196q-246 0 -371 155 q-129 -153 -328 -153q-177 0 -300.5 123.5t-123.5 300.5zM375 416q0 -109 66.5 -189t162.5 -80q97 0 164.5 80t67.5 191v327h-232q-99 0 -164 -79.5t-65 -188.5v-61z" />
<glyph unicode="'" horiz-adv-x="380" d="M10 1298q93 70 119.5 146.5t26.5 216.5h194q0 -196 -53 -308.5t-193 -172.5z" />
<glyph unicode="(" horiz-adv-x="661" d="M92 123v1077q0 186 133 305t334 119v-194q-111 0 -183.5 -62t-84.5 -170v-1073q12 -108 84.5 -169.5t183.5 -61.5v-195q-201 0 -334 119t-133 305z" />
<glyph unicode=")" horiz-adv-x="661" d="M16 -106q112 0 185.5 61.5t85.5 169.5v1073q-12 108 -86 170t-185 62v194q201 0 334 -119t133 -305v-1077q0 -186 -133 -305t-334 -119v195z" />
<glyph unicode="*" horiz-adv-x="948" d="M88 1174v266q109 0 203 -49q17 13 39 34q-49 98 -49 207h264q0 -111 -49 -205q14 -19 34 -36q98 49 207 49v-266q-107 0 -205 49l-36 -35q49 -98 49 -205h-264q0 107 47 203q-17 24 -35 37q-94 -49 -205 -49z" />
<glyph unicode="+" horiz-adv-x="1011" d="M72 549v194h325v326h195v-326h328v-194h-328v-328h-195v328h-325z" />
<glyph unicode="," horiz-adv-x="366" d="M10 -201q87 64 121.5 135t34.5 181h170q0 -143 -26.5 -225.5t-81.5 -125t-156 -65.5z" />
<glyph unicode="-" horiz-adv-x="1024" d="M47 508v197h848v-197h-848z" />
<glyph unicode="." horiz-adv-x="692" d="M205 -4v197h194v-197h-194z" />
<glyph unicode="/" horiz-adv-x="1030" d="M150 -2l428 1579h202l-428 -1579h-202z" />
<glyph unicode="0" horiz-adv-x="1015" d="M82 436v715q0 430 434 430q418 0 418 -430v-715q0 -243 -98.5 -349.5t-319.5 -106.5q-231 0 -332.5 106t-101.5 350zM276 436q0 -108 24.5 -166.5t74.5 -81t141 -22.5q115 0 169 57.5t54 212.5v715q0 64 -10 109t-27 72.5t-46.5 43t-61 20.5t-78.5 5q-61 0 -100.5 -9 t-73.5 -34.5t-50 -76.5t-16 -130v-715z" />
<glyph unicode="1" horiz-adv-x="632" d="M51 1397v184q122 0 202 -18.5t138 -67t83.5 -133t25.5 -215.5v-1149h-195v1149q0 81 -14.5 130.5t-48.5 76t-77 35t-114 8.5z" />
<glyph unicode="2" horiz-adv-x="1056" d="M92 -6v285q0 107 22.5 194t60.5 145t87 104.5t103.5 78.5t109 60t103.5 56.5t87 61.5t60.5 80.5t22.5 107.5q0 124 -55 175t-173 51q-111 0 -170 -77t-59 -216h-195q0 230 120.5 351.5t324.5 121.5q190 0 296.5 -108t106.5 -296q0 -94 -22.5 -166t-60 -118t-86.5 -81 t-103 -61t-107.5 -51.5t-102.5 -59.5t-86.5 -77.5t-60 -112t-22.5 -157.5v-101h651v-190h-852z" />
<glyph unicode="3" horiz-adv-x="1040" d="M51 477h195q0 -156 52 -226.5t179 -70.5q122 0 176 67t54 214q0 159 -68 233t-186 74v168q59 2 118.5 31.5t102.5 87.5t43 127q0 108 -61.5 165.5t-174.5 57.5q-34 0 -65 -8t-62 -29t-53.5 -54t-37 -88t-15.5 -126h-180q0 475 432 475q192 0 296.5 -106t104.5 -289 q0 -94 -42.5 -180t-129.5 -148q92 -61 135 -148t43 -241q0 -98 -25.5 -182t-76 -149.5t-134 -102.5t-192.5 -37q-230 0 -329 121t-99 364z" />
<glyph unicode="4" horiz-adv-x="1058" d="M72 838v737h200v-805q0 -119 42 -177t147 -58q46 0 89.5 10t84 31.5t65.5 62t25 94.5v842h201v-1575h-201v418q-120 -72 -266 -72q-117 0 -194 30t-119 95t-58 151t-16 216z" />
<glyph unicode="5" horiz-adv-x="1030" d="M82 467h194q4 -147 63 -216t171 -69q59 0 102.5 14.5t79 48t54 95.5t18.5 152v55q0 174 -51 233.5t-199 59.5h-428v735h821v-189h-631v-364h269q220 0 316.5 -102t96.5 -306v-125q0 -129 -34 -225.5t-95.5 -154.5t-141 -86.5t-177.5 -28.5q-195 0 -311.5 117.5 t-116.5 355.5z" />
<glyph unicode="6" horiz-adv-x="1060" d="M72 436v717q0 228 115 329t333 101h295v-180h-295q-70 0 -113 -8.5t-77 -33.5t-48.5 -73t-15.5 -125q104 49 254 49q234 0 341.5 -100t107.5 -334v-342q0 -245 -103.5 -350.5t-345.5 -105.5t-345 105.5t-103 350.5zM266 436q0 -157 58.5 -213.5t195.5 -56.5t195.5 56.5 t58.5 213.5v342q0 81 -14.5 130.5t-48.5 76t-77 35t-114 8.5t-114 -8.5t-77 -35t-48.5 -76t-14.5 -130.5v-342z" />
<glyph unicode="7" horiz-adv-x="866" d="M31 1397v184h274q103 0 174 -12t126 -40t86.5 -78.5t47 -124t15.5 -179.5v-1149h-195v1149q0 81 -14.5 130.5t-48.5 76t-77 35t-114 8.5h-274z" />
<glyph unicode="8" horiz-adv-x="1101" d="M72 483v90q0 245 127 345q-82 98 -82 266q0 184 100 285.5t311 101.5t311.5 -101.5t100.5 -285.5q0 -155 -72 -252q142 -100 142 -359v-90q0 -243 -115 -357t-354 -114t-354 114t-115 357zM289 492q0 -158 54 -227.5t198 -69.5t198 69.5t54 227.5v8q0 155 -53 224.5 t-191 72.5h-23q-135 -3 -186 -73t-51 -224v-8zM295 1196q0 -182 225 -182q136 0 189 41.5t53 140.5q0 103 -53 152t-174 49q-240 0 -240 -201z" />
<glyph unicode="9" horiz-adv-x="1060" d="M92 784v342q0 245 103.5 351t345.5 106t345 -106t103 -351v-1128h-194v403q-100 -47 -254 -47q-218 0 -333.5 101t-115.5 329zM287 784q0 -65 10.5 -109.5t28.5 -72t51 -42.5t70 -20t94 -5t94 5t70 20t51 42.5t28.5 72t10.5 109.5v342q0 157 -58.5 214t-195.5 57 t-195.5 -57t-58.5 -214v-342z" />
<glyph unicode=":" horiz-adv-x="337" d="M51 -6v194h195v-194h-195zM51 776v195h195v-195h-195z" />
<glyph unicode=";" horiz-adv-x="471" d="M51 -201q87 64 121.5 135t34.5 181h170q0 -143 -26.5 -225.5t-81.5 -125t-156 -65.5zM184 780v195h195v-195h-195z" />
<glyph unicode="&#x3c;" horiz-adv-x="1040" d="M51 565v168l627 565h289l-719 -649l721 -647h-293z" />
<glyph unicode="=" horiz-adv-x="1323" d="M205 307v193h848v-193h-848zM205 788v193h848v-193h-848z" />
<glyph unicode="&#x3e;" horiz-adv-x="1060" d="M92 -6l719 647l-719 649h291l627 -563v-170l-627 -563h-291z" />
<glyph unicode="?" horiz-adv-x="983" d="M51 1174q0 82 9 143.5t37 121.5t75 98t127 61.5t190 23.5q198 0 300 -106t102 -302v-204q0 -97 -21 -169.5t-55 -115.5t-74.5 -76.5t-81.5 -62.5t-75 -62.5t-55 -87.5t-21 -127h-193q0 96 21 167t54.5 113.5t74.5 76t81.5 64.5t74 68.5t54.5 99.5t21 146v72 q0 179 -51.5 245t-177.5 66q-133 0 -177 -49.5t-44 -203.5h-195zM313 -2v186h195v-186h-195z" />
<glyph unicode="@" horiz-adv-x="1378" d="M72 360v752q0 133 17.5 216t67.5 143.5t139 86t232 25.5h295q115 0 195 -17.5t132.5 -51.5t82.5 -93t41.5 -131.5t11.5 -177.5v-373q0 -344 -274 -344q-49 0 -84 10t-56.5 32.5t-30.5 37.5t-22 45q-20 -21 -31.5 -31.5t-36 -27t-56 -24t-70.5 -7.5q-118 0 -184 65.5 t-66 188.5v246q0 118 85.5 185t205.5 67h288v-477q0 -30 0.5 -45t4 -37t10.5 -32.5t21 -19t34 -8.5q41 0 54.5 32t13.5 105v474q0 61 -9.5 98t-36.5 65t-77.5 40t-132.5 12h-330q-75 0 -124 -15t-75 -47.5t-35.5 -72.5t-9.5 -101v-729q0 -61 9.5 -101t35.5 -72.5t75 -47.5 t124 -15h371v-190h-433q-95 0 -163 17t-108 46t-63 77t-30.5 98.5t-7.5 123.5zM559 727q0 -123 109 -123q102 0 102 139v267h-104q-53 0 -80 -29.5t-27 -83.5v-170z" />
<glyph unicode="A" horiz-adv-x="1052" d="M8 -2l430 1577h178l428 -1577h-200l-80 295h-473l-80 -295h-203zM340 477h373l-187 688z" />
<glyph unicode="B" horiz-adv-x="1181" d="M113 -2v1178q0 184 113.5 292.5t303.5 108.5q205 0 316.5 -111t111.5 -290q0 -97 -27 -167.5t-85 -129.5q128 -40 196 -142.5t68 -255.5q0 -483 -510 -483h-487zM307 934h203q67 0 117.5 21t78.5 57t41 77t13 87q0 100 -62.5 157.5t-162.5 57.5q-228 0 -228 -217v-240z M311 184h293q169 0 238 75t69 220q0 144 -77.5 206.5t-223.5 62.5h-299v-564z" />
<glyph unicode="C" horiz-adv-x="1167" d="M82 528v519q0 79 5.5 139t20 117.5t39.5 98.5t63.5 76t92 56.5t126.5 33t165 11.5q109 0 189 -11.5t137 -38.5t93 -64t56.5 -95t28.5 -123t8 -157h-197q0 44 -1.5 73.5t-6.5 62.5t-14 53.5t-25 42t-39 34t-55.5 22.5t-75.5 14.5t-98 4.5q-56 0 -98.5 -4.5t-75 -15.5 t-55.5 -24t-39 -36.5t-25 -47t-14 -61t-7 -72t-1 -87.5v-523q0 -53 1.5 -87.5t6.5 -72t14 -61t25 -47t39 -36.5t55.5 -24t75 -15.5t98.5 -4.5q76 0 126 4.5t86.5 20.5t56 35t30.5 58.5t13.5 80t2.5 110.5h197q0 -57 -2 -97.5t-8 -87t-17 -79t-30 -66.5t-46 -57t-65 -44 t-87.5 -33.5t-114 -19.5t-142.5 -7q-92 0 -165 11.5t-126.5 33t-92 56.5t-63.5 76t-39.5 98.5t-20 117.5t-5.5 139z" />
<glyph unicode="D" horiz-adv-x="1198" d="M123 -2v1577h495q105 0 183.5 -15t133 -46.5t90.5 -73.5t56 -104.5t27.5 -130t7.5 -158.5v-519q0 -111 -11.5 -188.5t-44 -146.5t-89 -110t-148 -63.5t-219.5 -21.5h-481zM317 184h287q64 0 110.5 6.5t81 17t57 33t36 45.5t20.5 63.5t9 78.5t2 98v523q0 60 -2 98t-9 78.5 t-20.5 63.5t-36 45.5t-57 33t-81 17t-110.5 6.5h-287v-1207z" />
<glyph unicode="E" horiz-adv-x="1021" d="M113 -2v1046q0 111 11.5 189t44 147t89 110t147.5 64t220 23h336v-182h-338q-63 0 -110 -6.5t-81.5 -18t-57 -34.5t-36 -46.5t-20.5 -64.5t-9 -79.5t-2 -98.5v-113h545v-184h-545v-566h654v-186h-848z" />
<glyph unicode="F" horiz-adv-x="1042" d="M123 -2v1577h848v-184h-654v-457h545v-184h-545v-752h-194z" />
<glyph unicode="G" horiz-adv-x="1167" d="M82 528v519q0 79 5.5 139t20 117.5t39.5 98.5t63.5 76t92 56.5t126.5 33t165 11.5q109 0 189 -11.5t137 -38.5t93 -64t56.5 -95t28.5 -123t8 -157h-197q0 44 -1.5 73.5t-6.5 62.5t-14 53.5t-25 42t-39 34t-55.5 22.5t-75.5 14.5t-98 4.5q-56 0 -98.5 -4.5t-75 -15.5 t-55.5 -24t-39 -36.5t-25 -47t-14 -61t-6.5 -72t-1.5 -87.5v-523q0 -53 1.5 -87.5t6.5 -72t14 -61t25 -47t39 -36.5t55.5 -24t75 -15.5t98.5 -4.5q76 0 126 4.5t86.5 20.5t56 35t30.5 58.5t13.5 80t2.5 110.5v261h-286v186h483v-447q0 -57 -2 -97.5t-8 -87t-17 -79 t-30 -66.5t-46 -57t-65 -44t-87.5 -33.5t-114 -19.5t-142.5 -7q-92 0 -165 11.5t-126.5 33t-92 56.5t-63.5 76t-39.5 98.5t-20 117.5t-5.5 139z" />
<glyph unicode="H" d="M133 -2v1577h199v-727h528v727h195v-1575h-195v662h-528v-664h-199z" />
<glyph unicode="I" horiz-adv-x="464" d="M133 -2v1577h199v-1577h-199z" />
<glyph unicode="J" horiz-adv-x="968" d="M6 477h197q0 -86 8.5 -138t33 -91t70 -54.5t119.5 -15.5q51 0 87.5 7.5t62 27.5t40 44.5t22.5 68t10.5 87.5t2.5 113v1049h197v-1047q0 -79 -4.5 -139t-16.5 -117.5t-32.5 -98.5t-53 -76t-77 -56.5t-105 -33t-137.5 -11.5q-128 0 -212.5 31t-130.5 96.5t-63.5 148.5 t-17.5 205z" />
<glyph unicode="K" horiz-adv-x="1259" d="M123 -2v1579h194v-559l547 547h271l-654 -654q30 -119 72 -218.5t97 -178t117 -141t142 -115.5t160.5 -93.5t183.5 -82.5l-112 -178q-135 45 -260.5 120t-237 177.5t-197.5 241t-129 296.5v-741h-194z" />
<glyph unicode="L" horiz-adv-x="985" d="M133 -6v1581h197v-1395h651v-186h-848z" />
<glyph unicode="M" horiz-adv-x="1280" d="M133 -2v1577h268l238 -875l238 875h270v-1577h-197v1110l-221 -819h-180l-221 817v-1108h-195z" />
<glyph unicode="N" horiz-adv-x="1105" d="M133 -2v1577h180l475 -1081v1081h195v-1577h-190l-465 1063v-1063h-195z" />
<glyph unicode="O" d="M82 528v519q0 79 5.5 139t20 117.5t39.5 98.5t63.5 76t92 56.5t126.5 33t165 11.5t165 -11.5t126.5 -33t92 -56.5t63.5 -76t39.5 -98.5t20 -117.5t5.5 -139v-519q0 -79 -5.5 -139t-20 -117.5t-39.5 -98.5t-63.5 -76t-92 -56.5t-126.5 -33t-165 -11.5t-165 11.5t-126.5 33 t-92 56.5t-63.5 76t-39.5 98.5t-20 117.5t-5.5 139zM279 526q0 -53 1.5 -87.5t6.5 -72t14 -61t25 -47t39 -36.5t55.5 -24t75 -15.5t98.5 -4.5t98.5 4.5t75 15.5t55.5 24t39 36.5t25 47t14 61t6.5 72t1.5 87.5v523q0 53 -1.5 87.5t-6.5 72t-14 61t-25 47t-39 36.5t-55.5 24 t-75 15.5t-98.5 4.5t-98.5 -4.5t-75 -15.5t-55.5 -24t-39 -36.5t-25 -47t-14 -61t-7 -72t-1 -87.5v-523z" />
<glyph unicode="P" horiz-adv-x="1056" d="M133 -2v1583l424 2q218 0 333.5 -102t115.5 -330v-172q0 -245 -103.5 -351t-345.5 -106h-229v-524h-195zM328 709h229q137 0 195.5 56.5t58.5 213.5v172q0 54 -6 93t-21.5 65t-33.5 42.5t-50.5 25.5t-62.5 13t-80 7h-229v-688z" />
<glyph unicode="Q" d="M82 528v519q0 79 5.5 139t20 117.5t39.5 98.5t63.5 76t92 56.5t126.5 33t165 11.5t165 -11.5t126.5 -33t92 -56.5t63.5 -76t39.5 -98.5t20 -117.5t5.5 -139v-519q0 -88 -7 -154t-26 -127.5t-51.5 -104.5t-84.5 -75t-124 -49q9 -111 75 -157.5t199 -46.5v-189 q-458 0 -469 371h-24q-92 0 -165 11.5t-126.5 33t-92 56.5t-63.5 76t-39.5 98.5t-20 117.5t-5.5 139zM279 526q0 -53 1.5 -87.5t6.5 -72t14 -61t25 -47t39 -36.5t55.5 -24t75 -15.5t98.5 -4.5t98.5 4.5t75 15.5t55.5 24t39 36.5t25 47t14 61t6.5 72t1.5 87.5v523 q0 53 -1.5 87.5t-6.5 72t-14 61t-25 47t-39 36.5t-55.5 24t-75 15.5t-98.5 4.5t-98.5 -4.5t-75 -15.5t-55.5 -24t-39 -36.5t-25 -47t-14 -61t-6.5 -72t-1.5 -87.5v-523z" />
<glyph unicode="R" horiz-adv-x="1179" d="M133 -2v1583l424 2q218 0 333.5 -102t115.5 -330v-111q0 -227 -88 -334t-289 -120q75 -200 221 -340t324 -205l-97 -143q-146 34 -283.5 144t-230.5 253.5t-127 288.5h-108v-586h-195zM328 770h229q137 0 195.5 56.5t58.5 213.5v111q0 54 -6 93t-21.5 65t-33.5 42.5 t-50.5 25.5t-62.5 13t-80 7h-229v-627z" />
<glyph unicode="S" horiz-adv-x="1097" d="M72 1137q0 228 109 335t354 107h395v-186q-28 0 -200.5 1t-201.5 1q-80 0 -131.5 -16t-78 -51.5t-35.5 -78.5t-9 -110q0 -70 26 -114t69.5 -62.5t100 -25.5t119 -10.5t125 -9.5t119 -30t100 -66t69.5 -123t26 -196q0 -275 -102 -391.5t-346 -116.5h-504v196h502 q65 0 108 10t71.5 30t43.5 58t20.5 84.5t5.5 119.5q0 82 -26 134.5t-69.5 76t-100 33.5t-119.5 12.5t-125.5 7.5t-119 25t-100 58t-69.5 113.5t-26 184.5z" />
<glyph unicode="T" horiz-adv-x="862" d="M6 1391v180h850v-180h-328v-1391h-194v1391h-328z" />
<glyph unicode="U" horiz-adv-x="1249" d="M113 528v1047h196v-1049q0 -60 2 -98.5t9 -79.5t20.5 -64.5t36 -46.5t57 -34.5t81.5 -18t110 -6.5q56 0 98.5 4.5t75 15.5t55.5 24t39 36.5t25 47t14 61t6.5 72t1.5 87.5v1051h197v-1049q0 -79 -5.5 -139t-20 -117.5t-39.5 -98.5t-63.5 -76t-92 -56.5t-126.5 -33 t-165 -11.5t-165 11.5t-126.5 33t-92 56.5t-63.5 76t-39.5 98.5t-20 117.5t-5.5 139z" />
<glyph unicode="V" horiz-adv-x="1050" d="M8 1575h201l317 -1165l316 1165h200l-428 -1577h-178z" />
<glyph unicode="W" horiz-adv-x="1667" d="M8 1575h201l317 -1165l219 821h168l228 -821l315 1165h203l-430 -1577h-178l-217 813l-220 -813h-178z" />
<glyph unicode="X" horiz-adv-x="923" d="M8 -2l346 797l-346 780h213l242 -549l242 549h210l-344 -797l344 -780h-210l-242 549l-242 -549h-213z" />
<glyph unicode="Y" horiz-adv-x="923" d="M8 1575h211l244 -549l242 549h210l-356 -807v-770h-194v770z" />
<glyph unicode="Z" horiz-adv-x="968" d="M31 -2l614 1393h-577v184h870l-616 -1397h593v-180h-884z" />
<glyph unicode="[" horiz-adv-x="577" d="M72 -260v1837h413v-188h-223v-1461h223v-188h-413z" />
<glyph unicode="\" horiz-adv-x="761" d="M51 1587h203l436 -1589h-203z" />
<glyph unicode="]" horiz-adv-x="577" d="M92 -72h223v1461h-223v188h414v-1837h-414v188z" />
<glyph unicode="^" horiz-adv-x="956" d="M51 1116v84q0 180 123 302t301 122q179 0 301.5 -123t122.5 -301v-84h-194q0 133 -64.5 223.5t-165.5 90.5q-102 0 -165.5 -90.5t-63.5 -223.5h-195z" />
<glyph unicode="_" horiz-adv-x="964" d="M51 -4v194h848v-194h-848z" />
<glyph unicode="`" horiz-adv-x="563" d="M39 1571l135 108q72 -99 150 -140.5t204 -41.5v-168q-91 0 -153.5 9t-123 35t-110.5 74t-102 124z" />
<glyph unicode="a" horiz-adv-x="1126" d="M92 406v382q0 199 117 298.5t315 99.5h416v-852q0 -71 24 -92.5t99 -26.5v-221q-53 0 -94 6t-79 21.5t-63.5 45t-38.5 72.5q-56 -70 -123.5 -107.5t-185.5 -37.5q-203 0 -295 102.5t-92 309.5zM289 428q0 -140 42.5 -196t147.5 -56q135 0 200.5 68t65.5 245v512h-229 q-126 0 -176.5 -58t-50.5 -193v-322z" />
<glyph unicode="b" horiz-adv-x="1091" d="M102 436v1145h197v-412q89 41 252 41q240 0 344 -114.5t104 -362.5v-297q0 -245 -103 -350.5t-345 -105.5t-345.5 105.5t-103.5 350.5zM297 436q0 -157 58.5 -213.5t195.5 -56.5t195.5 56.5t58.5 213.5v297q0 159 -60 225t-194 66q-68 0 -113 -11.5t-77 -42t-46.5 -83 t-15.5 -133.5z" />
<glyph unicode="c" horiz-adv-x="1060" d="M92 436v340q0 229 116 332.5t333 103.5q215 0 331.5 -109.5t116.5 -340.5h-194q0 157 -58.5 213.5t-195.5 56.5q-70 0 -114 -9.5t-77.5 -37t-48 -78t-14.5 -131.5v-340q0 -157 58.5 -213.5t195.5 -56.5q69 0 113.5 11t78 39.5t48 80.5t14.5 133h194q0 -244 -102.5 -347 t-345.5 -103q-242 0 -345.5 105.5t-103.5 350.5z" />
<glyph unicode="d" horiz-adv-x="1167" d="M92 426v301q0 248 104.5 362.5t344.5 114.5q156 0 245 -41v412h197v-1241q0 -71 24 -92.5t99 -26.5v-221q-53 0 -94.5 6t-79.5 21.5t-64 45t-39 72.5q-58 -72 -133 -108.5t-198 -36.5q-93 0 -165 22.5t-127.5 71.5t-84.5 134t-29 204zM287 424q0 -142 56.5 -195 t182.5 -53q140 0 200 70.5t60 234.5v267q0 108 -26 167t-77 81t-142 22q-134 0 -194 -66t-60 -225v-303z" />
<glyph unicode="e" horiz-adv-x="1064" d="M92 430v348q0 229 116 331.5t333 102.5q212 0 330 -109.5t118 -338.5v-248h-702v-86q0 -81 14.5 -133t48 -80.5t78 -39.5t113.5 -11q145 0 199.5 54.5t54.5 187.5h194q0 -229 -99.5 -328.5t-348.5 -99.5q-243 0 -346 103t-103 347zM287 698h508v66q0 155 -59 211.5 t-195 56.5q-70 0 -114 -9.5t-77.5 -36t-48 -77t-14.5 -131.5v-80z" />
<glyph unicode="f" horiz-adv-x="622" d="M72 768v186h71v197q0 228 115.5 329t333.5 101v-180q-71 0 -114 -8.5t-77 -35t-48.5 -76t-14.5 -130.5v-197h201v-186h-201v-770h-195v770h-71z" />
<glyph unicode="g" horiz-adv-x="1060" d="M72 580v198q0 228 115 329t333 101t333.5 -101t115.5 -329v-696q0 -134 -24 -221.5t-79.5 -140.5t-137.5 -74t-208 -21h-278v187h278q99 0 151.5 22.5t77.5 80.5t25 167v84q-98 -43 -254 -43q-242 0 -345 106t-103 351zM266 580q0 -157 58.5 -214t195.5 -57t195.5 57 t58.5 214v198q0 81 -14.5 130.5t-48.5 76t-77 35t-114 8.5t-114 -8.5t-77 -35t-48.5 -76t-14.5 -130.5v-198z" />
<glyph unicode="h" horiz-adv-x="1085" d="M102 0v1581h197v-418q96 49 279 49q115 0 191 -20t127.5 -68t74 -128t22.5 -201v-795h-194v780q0 67 -10 112t-27.5 72.5t-51 42t-71 19t-98.5 4.5q-62 0 -102 -9t-74 -34.5t-50 -76.5t-16 -130v-780h-197z" />
<glyph unicode="i" horiz-adv-x="471" d="M137 -2v1188h195v-1188h-195zM137 1391v184h195v-184h-195z" />
<glyph unicode="j" horiz-adv-x="497" d="M31 -174q67 0 95 25.5t28 95.5v1241h190v-1243q0 -96 -15.5 -155.5t-54 -95t-95.5 -48.5t-148 -13v193zM154 1389v186h190v-186h-190z" />
<glyph unicode="k" horiz-adv-x="1103" d="M102 2v1579h195v-864l446 497h238l-473 -471q44 -196 118.5 -327t186 -218t287.5 -157l-86 -143q-135 42 -249 117.5t-193 170t-131 200t-74 216.5l-70 -70v-530h-195z" />
<glyph unicode="l" horiz-adv-x="497" d="M133 311v1270h191v-1268q0 -70 27.5 -95t94.5 -25v-193q-91 0 -147.5 13t-95.5 48t-54.5 94.5t-15.5 155.5z" />
<glyph unicode="m" horiz-adv-x="1867" d="M51 1020v188q122 0 184 -29t93 -112q60 79 143 112t205 33q233 0 336 -143q100 143 358 143q103 0 175 -19t125.5 -64.5t79.5 -126.5t26 -201v-801h-197v778q0 83 -11.5 132t-42.5 76t-72 35.5t-112 8.5q-98 0 -151.5 -24t-81 -91.5t-27.5 -193.5v-721h-196v782 q0 81 -12 129.5t-42.5 75t-72 35t-111.5 8.5q-140 0 -200 -57t-60 -193v-780h-197v883q0 87 -24 109t-115 28z" />
<glyph unicode="n" horiz-adv-x="1173" d="M51 1020v188q122 0 184 -29t93 -112q60 79 143 112t205 33q113 0 186.5 -18.5t124.5 -65.5t72.5 -126t21.5 -201v-801h-196v778q0 143 -52.5 197.5t-185.5 54.5q-140 0 -200 -57t-60 -193v-780h-197v883q0 87 -24 109t-115 28z" />
<glyph unicode="o" horiz-adv-x="1081" d="M92 436v342q0 228 115.5 329t333.5 101t333 -101t115 -329v-342q0 -245 -103 -350.5t-345 -105.5t-345.5 105.5t-103.5 350.5zM287 436q0 -157 58.5 -213.5t195.5 -56.5t195.5 56.5t58.5 213.5v342q0 81 -14.5 130.5t-48.5 76t-77 35t-114 8.5t-114 -8.5t-77 -35 t-48.5 -76t-14.5 -130.5v-342z" />
<glyph unicode="p" horiz-adv-x="1161" d="M39 1020v188q121 0 183 -29t93 -112q59 79 143 112t206 33q93 0 165 -22.5t127 -71.5t84 -134t29 -204v-301q0 -248 -104 -362.5t-344 -114.5q-157 0 -246 41v-412h-197v1252q0 87 -24 109t-115 28zM375 459q0 -158 55.5 -214.5t190.5 -56.5q133 0 193 65.5t60 225.5v303 q0 142 -56.5 195t-182.5 53q-144 0 -202 -57t-58 -217v-297z" />
<glyph unicode="q" horiz-adv-x="1071" d="M92 436v342q0 228 115.5 329t333.5 101t333 -101t115 -329v-1155h-194v400q-98 -43 -254 -43q-242 0 -345.5 105.5t-103.5 350.5zM287 436q0 -157 58.5 -213.5t195.5 -56.5t195.5 56.5t58.5 213.5v342q0 81 -14.5 130.5t-48.5 76t-77 35t-114 8.5t-114 -8.5t-77 -35 t-48.5 -76t-14.5 -130.5v-342z" />
<glyph unicode="r" horiz-adv-x="612" d="M113 -2v1188h194v-84q43 54 122 79t171 25v-174q-73 -5 -124 -18t-91 -40t-59 -73.5t-19 -114.5v-788h-194z" />
<glyph unicode="s" horiz-adv-x="978" d="M66 420h198q0 -242 225 -242q110 0 168 46.5t58 133.5q0 49 -22 79.5t-60 43t-86.5 17.5t-102.5 7.5t-107.5 8t-102 24t-86.5 51t-60 93t-22 145.5q0 167 110.5 276t312.5 109q219 0 321.5 -112.5t102.5 -313.5l-198 2q0 132 -48.5 187t-177.5 55q-108 0 -166.5 -46.5 t-58.5 -156.5q0 -46 22 -74t60 -38.5t86.5 -14.5t102.5 -5t107.5 -6.5t102 -23.5t86.5 -49.5t60 -91.5t22 -145q0 -190 -115 -287.5t-309 -97.5q-423 0 -423 426z" />
<glyph unicode="t" horiz-adv-x="632" d="M72 1008v184h102v184h191v-184h206v-184h-206v-672q0 -77 37.5 -110t144.5 -33v-193q-111 0 -184.5 19t-114.5 60t-57.5 96t-16.5 136v697h-102z" />
<glyph unicode="u" horiz-adv-x="1071" d="M82 432v754h194v-754q0 -81 14.5 -133t47.5 -81.5t78 -40.5t114 -11t114 11t78 40.5t47.5 81.5t14.5 133v754h195v-754q0 -245 -103 -348.5t-346 -103.5t-345.5 103.5t-102.5 348.5z" />
<glyph unicode="v" horiz-adv-x="894" d="M10 1208h203l236 -821l233 821h203l-344 -1210h-185z" />
<glyph unicode="w" horiz-adv-x="1732" d="M82 436v750h194v-750q0 -71 10.5 -119.5t28.5 -78.5t51 -45.5t70 -21t94 -5.5q131 0 182.5 52t51.5 202v766h194v-750q0 -160 50.5 -215t183.5 -55q57 0 94 5.5t70 21t51 45.5t28.5 78.5t10.5 119.5v750h194v-750q0 -131 -24 -217.5t-79 -140t-138 -76t-207 -22.5 q-123 0 -200 26.5t-132 85.5q-55 -59 -131 -85.5t-199 -26.5q-124 0 -207 22.5t-138 76t-79 140t-24 217.5z" />
<glyph unicode="x" horiz-adv-x="946" d="M10 1194h228l239 -412l238 412h221l-348 -604l342 -592h-225l-230 397l-229 -397h-221l340 590z" />
<glyph unicode="y" horiz-adv-x="1071" d="M82 580v614h192l2 -614q0 -157 58.5 -214t195.5 -57t195.5 57t58.5 214v614h195v-1112q0 -134 -24 -221.5t-79.5 -140.5t-137.5 -74t-208 -21h-278v187h278q99 0 151.5 22.5t77.5 80.5t25 167v84q-98 -43 -254 -43q-242 0 -345 106t-103 351z" />
<glyph unicode="z" horiz-adv-x="987" d="M35 -2l590 1028h-551v182h878l-590 -1028h562v-182h-889z" />
<glyph unicode="{" horiz-adv-x="901" d="M92 649v25q0 130 73.5 237.5t196.5 157.5v131q0 186 133 305t334 119v-194q-111 0 -183.5 -62t-84.5 -170v-295q-111 0 -184.5 -61.5t-85.5 -169.5v-21q12 -108 85.5 -169.5t184.5 -61.5v-295q12 -108 84.5 -169.5t183.5 -61.5v-195q-201 0 -334 119t-133 305v131 q-123 50 -196.5 157.5t-73.5 237.5z" />
<glyph unicode="|" horiz-adv-x="436" d="M123 -416v2044h190v-2044h-190z" />
<glyph unicode="}" horiz-adv-x="901" d="M72 -106q111 0 184.5 61.5t85.5 169.5v295q111 0 184.5 61.5t85.5 169.5v21q-12 108 -85.5 169.5t-184.5 61.5v295q-12 108 -85.5 170t-184.5 62v194q201 0 335 -119.5t134 -304.5v-131q122 -50 195 -157.5t73 -237.5v-25q0 -130 -73 -237.5t-195 -157.5v-131 q0 -185 -134 -304.5t-335 -119.5v195z" />
<glyph unicode="~" horiz-adv-x="882" d="M10 1513q58 68 122 100t155 32q64 0 158.5 -39t142.5 -39q65 0 172 71l92 -137q-116 -129 -279 -129q-56 0 -154 38t-147 38q-60 0 -172 -70z" />
<glyph unicode="&#xa1;" horiz-adv-x="460" d="M133 6v1323h195v-1323h-195zM133 1458v199h195v-199h-195z" />
<glyph unicode="&#xa2;" horiz-adv-x="1060" d="M92 436v340q0 381 342 428v205h199v-203q171 -21 263.5 -130t92.5 -314h-194q0 157 -58.5 213.5t-195.5 56.5q-70 0 -114 -9.5t-77.5 -37t-48 -78t-14.5 -131.5v-340q0 -157 58.5 -213.5t195.5 -56.5q69 0 113.5 11t78 39.5t48 80.5t14.5 133h194q0 -220 -83 -324.5 t-273 -121.5v-195h-199v197q-183 20 -262.5 126t-79.5 324z" />
<glyph unicode="&#xa3;" horiz-adv-x="1495" d="M41 -6v256q258 15 258 184v234h-258v254h258v243q0 118 61 215.5t163 152t220 54.5q182 0 312.5 -122t130.5 -300v-78h-264v39q0 84 -50.5 145.5t-128.5 61.5t-129 -61.5t-51 -145.5v-204h365v-254h-363v-232q0 -76 52 -132t126 -56h734v-256h-738q-169 23 -303 121 q-162 -110 -395 -119z" />
<glyph unicode="&#xa4;" horiz-adv-x="1142" d="M111 -45l133 317q-94 116 -94 267v149q0 163 106 281l-145 342h213l94 -228q82 29 155 29q72 0 142 -25l92 224h211l-137 -330q116 -122 116 -293v-149q0 -163 -106 -281l127 -303h-211l-78 188q-79 -28 -156 -28q-86 0 -170 35l-79 -195h-213zM344 580q0 -109 66.5 -189 t162.5 -80t163 80t67 189v67q0 109 -67 188.5t-163 79.5t-162.5 -79.5t-66.5 -188.5v-67z" />
<glyph unicode="&#xa5;" horiz-adv-x="923" d="M8 1575h211l244 -549l242 549h210l-344 -778h312v-185h-324v-106h324v-184h-324v-324h-194v324h-330v184h330v106h-330v185h317z" />
<glyph unicode="&#xa6;" horiz-adv-x="522" d="M162 -475v1007h198v-1007h-198zM162 672v1007h198v-1007h-198z" />
<glyph unicode="&#xa7;" horiz-adv-x="1069" d="M68 -385h526q96 0 162.5 79.5t66.5 188.5q0 21 -14 62q-58 172 -213 172h-104q-203 0 -313.5 114t-110.5 310v24q0 152 96 270t244 146q-135 31 -217 135t-82 244v24q0 181 122 300.5t304 119.5h421v-192h-276q-188 0 -280.5 -61t-92.5 -191q0 -93 66.5 -161.5 t158.5 -68.5h105q175 0 299.5 -122t124.5 -295q0 -152 -18 -244t-57 -150t-112 -110q146 -128 146 -315q0 -31 -2 -37v-15q0 -177 -123.5 -300.5t-300.5 -123.5h-526v197zM266 541q0 -147 135 -209h234q96 0 162.5 79.5t66.5 188.5v107q0 31 -24 84l-348 4q-93 1 -159.5 -76 t-66.5 -178z" />
<glyph unicode="&#xa8;" horiz-adv-x="614" d="M10 1389v186h191v-186h-191zM393 1389v186h191v-186h-191z" />
<glyph unicode="&#xa9;" horiz-adv-x="1822" d="M92 788q0 168 65 320t175 261.5t261.5 174t317.5 64.5q224 0 412.5 -109.5t298 -298t109.5 -412.5q0 -168 -64.5 -320t-174.5 -261.5t-261.5 -173.5t-319.5 -64t-320 64t-261.5 173.5t-173.5 261.5t-64 320zM223 788q0 -142 54 -269.5t145.5 -219t219 -145.5t269.5 -54 q188 0 346 91.5t250 250t92 346.5q0 187 -92 346t-250.5 251t-345.5 92q-141 0 -268.5 -54.5t-219.5 -146.5t-146 -220t-54 -268zM563 604v352q0 77 8 130.5t29.5 101t60.5 75.5t101 44t149 16q112 0 181.5 -18t107.5 -62t51 -102.5t13 -153.5h-136q0 41 -2 65.5t-9 51.5 t-21 41.5t-38 27.5t-60 18t-87 5q-50 0 -85.5 -5t-59.5 -19t-38 -30t-21 -46.5t-9 -59.5t-2 -78v-354q0 -59 3 -92.5t14.5 -66.5t35 -48.5t63 -25t99.5 -9.5q52 0 87 3.5t60 14.5t38.5 24t21 40.5t9 54t1.5 74.5h136q0 -51 -2 -84.5t-10 -71.5t-23 -62.5t-40.5 -48.5 t-63 -37t-91 -21t-123.5 -8q-88 0 -149.5 15.5t-100.5 43.5t-60.5 75t-29.5 100t-8 130z" />
<glyph unicode="&#xaa;" horiz-adv-x="632" d="M33 1327v150q0 117 69 175t185 58h245v-426q0 -42 13.5 -55t56.5 -15v-131q-64 0 -105 18.5t-55 67.5q-34 -42 -73.5 -64t-108.5 -22q-119 0 -173 60.5t-54 183.5zM150 1339q0 -83 24 -115t86 -32q79 0 117.5 40.5t38.5 143.5v226h-133q-74 0 -103.5 -34.5t-29.5 -115.5 v-113z" />
<glyph unicode="&#xab;" horiz-adv-x="987" d="M51 557v92q162 127 164 129l164 127h209l-383 -301l383 -303h-209zM358 557v92q162 127 164 129l164 127h209l-383 -301l383 -303h-209z" />
<glyph unicode="&#xac;" horiz-adv-x="976" d="M47 815v143h852v-446h-143v303h-709z" />
<glyph unicode="&#xad;" horiz-adv-x="1024" d="M47 508v197h848v-197h-848z" />
<glyph unicode="&#xae;" horiz-adv-x="942" d="M51 1212q0 174 119.5 292t290.5 118q172 0 290.5 -119t118.5 -291q0 -171 -117.5 -290t-291.5 -119q-173 0 -291.5 118t-118.5 291zM117 1212q0 -142 100.5 -243t243.5 -101t243.5 101t100.5 243t-100.5 243t-243.5 101q-139 0 -241.5 -102t-102.5 -242zM322 989v338 q0 57 40 97t97 40t96 -40t39 -97v-8q0 -60 -43 -100l74 -230h-64l-65 199q-24 -4 -37 -4h-76v-195h-61zM383 1245h76q31 0 52 21.5t21 52.5v8q0 31 -21.5 53.5t-51.5 22.5q-31 0 -53.5 -22.5t-22.5 -53.5v-82z" />
<glyph unicode="&#xaf;" horiz-adv-x="835" d="M31 1481v110h762v-110h-762z" />
<glyph unicode="&#xb0;" horiz-adv-x="591" d="M57 1442q0 100 71 170.5t171 70.5t171 -70.5t71 -170.5t-71 -171t-171 -71t-171 71t-71 171zM215 1442q0 -35 24.5 -59.5t59.5 -24.5t59.5 24.5t24.5 59.5t-24.5 59.5t-59.5 24.5t-59.5 -24.5t-24.5 -59.5z" />
<glyph unicode="&#xb1;" horiz-adv-x="1028" d="M72 -4v194h848v-194h-848zM88 649v195h328v325h192v-325h328v-195h-328v-327h-192v327h-328z" />
<glyph unicode="&#xb2;" horiz-adv-x="593" d="M63 1139q-1 90 68.5 150.5t165.5 60.5q39 0 66.5 26t27.5 64q0 36 -28.5 63t-65.5 27q-92 0 -92 -141h-142v57q0 90 71 150.5t163 60.5q95 0 165 -60.5t70 -150.5v-12q0 -90 -70 -150.5t-165 -60.5q-38 0 -65 -30.5t-27 -72.5v-129h327v-129h-466z" />
<glyph unicode="&#xb3;" horiz-adv-x="559" d="M43 1409v57q0 90 70.5 150.5t162.5 60.5q95 0 165.5 -60.5t70.5 -150.5v-12q0 -85 -68 -147q68 -62 68 -150v-63q0 -91 -68.5 -151t-164.5 -60t-165 60.5t-69 150.5v57h139q0 -141 95 -141q40 0 66 30t26 72v27q0 102 -135 102l-3 129q129 0 138 90q-15 90 -95 90 q-92 0 -92 -141h-141z" />
<glyph unicode="&#xb4;" horiz-adv-x="530" d="M10 1329v168q126 0 204.5 41.5t150.5 140.5l135 -108q-52 -76 -102.5 -124t-111 -74t-123 -35t-153.5 -9z" />
<glyph unicode="&#xb6;" horiz-adv-x="1570" d="M72 1075v125q0 180 123 302t301 122h962v-180h-182v-1692h-195v1692h-161v-1673h-195v880h-229q-180 0 -302 122t-122 302z" />
<glyph unicode="&#xb7;" horiz-adv-x="317" d="M31 547v196h194v-196h-194z" />
<glyph unicode="&#xb8;" horiz-adv-x="452" d="M39 -381q0 72 0.5 113t2.5 94t6.5 81.5t12 64t19 54t28.5 37.5t39.5 29.5t51.5 16.5q188 -66 196 -70q-37 -1 -62 -8t-43.5 -27.5t-29 -48t-17 -78.5t-8.5 -109t-2 -149h-194z" />
<glyph unicode="&#xb9;" horiz-adv-x="430" d="M59 1550v127q120 0 198.5 -58.5t78.5 -152.5v-579h-141v561q0 102 -136 102z" />
<glyph unicode="&#xba;" horiz-adv-x="608" d="M59 1321v143q0 244 244 244q125 0 184.5 -59t59.5 -185v-143q0 -126 -59.5 -185t-184.5 -59q-124 0 -184 59.5t-60 184.5zM182 1378q0 -99 22 -140.5t99 -41.5t99 41.5t22 140.5v31q0 99 -22 140.5t-99 41.5t-99 -41.5t-22 -140.5v-31z" />
<glyph unicode="&#xbb;" horiz-adv-x="989" d="M92 301l383 303l-383 301h209l307 -241v-107l-307 -256h-209zM420 301l383 303l-383 301h209l307 -241v-107l-307 -256h-209z" />
<glyph unicode="&#xbc;" horiz-adv-x="1546" d="M176 1468v109q109 0 184.5 -62.5t75.5 -164.5v-666h-110v643q0 63 -42 102t-108 39zM248 -2l667 1577h144l-666 -1577h-145zM836 424v467h112v-445q0 -59 34.5 -101t88.5 -42t89.5 42t35.5 101v447h111v-891h-111v229q-55 -34 -125 -34q-96 0 -165.5 65.5t-69.5 161.5z " />
<glyph unicode="&#xbd;" horiz-adv-x="1523" d="M162 1468v109q109 0 184.5 -62.5t75.5 -164.5v-666h-111v643q0 63 -41.5 102t-107.5 39zM233 -2l668 1577h146l-668 -1577h-146zM834 -4v61q0 210 36 222l-36 22q0 95 69.5 161t165.5 66q50 0 86.5 38.5t36.5 90.5q0 51 -36 88t-87 37q-54 0 -88.5 -48t-34.5 -118h-112 v48q0 95 69.5 161t165.5 66q95 0 165.5 -66.5t70.5 -160.5v-15q0 -95 -70.5 -161t-165.5 -66q-54 0 -88.5 -42t-34.5 -101v-173h359v-110h-471z" />
<glyph unicode="&#xbe;" horiz-adv-x="1697" d="M172 915v48h111q0 -72 34.5 -119t90.5 -47q54 0 88 41t34 100v31q0 143 -149 143v109q143 58 149 127q-6 55 -40 91t-84 36q-54 0 -88.5 -48t-34.5 -118h-111v47q0 96 68.5 161.5t165.5 65.5q95 0 165 -66.5t70 -160.5v-15q0 -105 -84 -174q86 -71 86 -176v-76 q0 -95 -70 -161t-165 -66q-96 0 -166 65.5t-70 161.5zM397 2l668 1573h145l-667 -1573h-146zM987 424v467h111v-445q0 -59 35.5 -101t89.5 -42t88.5 42t34.5 101v447h110v-891h-110q0 120 2 229q-81 -34 -125 -34q-96 0 -166 65.5t-70 161.5z" />
<glyph unicode="&#xbf;" horiz-adv-x="983" d="M92 406v204q0 97 21 169.5t55 115.5t75 76.5t81.5 62.5t74.5 62.5t55 87.5t21 127h193q0 -96 -21 -167t-54.5 -113.5t-74.5 -76t-81.5 -65t-74 -69t-54.5 -99.5t-21 -146v-71q0 -179 51.5 -245t177.5 -66q133 0 177 49.5t44 203.5h195q0 -82 -9 -143.5t-37 -121.5 t-75 -98t-127 -61.5t-190 -23.5q-198 0 -300 106t-102 302zM475 1436v186h195v-186h-195z" />
<glyph unicode="&#xc0;" horiz-adv-x="1052" d="M8 -2l430 1577h178l428 -1577h-200l-80 295h-473l-80 -295h-203zM197 1894l135 109q72 -99 150 -140.5t204 -41.5v-168q-91 0 -153.5 9t-123 34.5t-110.5 73.5t-102 124zM340 477h373l-187 688z" />
<glyph unicode="&#xc1;" horiz-adv-x="1052" d="M8 -2l430 1577h178l428 -1577h-200l-80 295h-473l-80 -295h-203zM340 477h373l-187 688zM430 1657v168q126 0 204 41.5t150 140.5l136 -109q-52 -76 -102.5 -124t-111 -73.5t-123 -34.5t-153.5 -9z" />
<glyph unicode="&#xc2;" horiz-adv-x="1052" d="M8 -2l430 1577h178l428 -1577h-200l-80 295h-473l-80 -295h-203zM197 1649l217 286h229l217 -286l-123 -39l-207 215l-211 -215zM340 477h373l-187 688z" />
<glyph unicode="&#xc3;" horiz-adv-x="1052" d="M8 -2l430 1577h178l428 -1577h-200l-80 295h-473l-80 -295h-203zM170 1790q105 127 250 127q55 0 136.5 -34t123.5 -34q53 0 149 62l56 -80q-105 -127 -250 -127q-48 0 -133.5 32.5t-128.5 32.5q-51 0 -148 -59zM340 477h373l-187 688z" />
<glyph unicode="&#xc4;" horiz-adv-x="1052" d="M8 -2l430 1577h178l428 -1577h-200l-80 295h-473l-80 -295h-203zM233 1677v187h191v-187h-191zM340 477h373l-187 688zM616 1677v187h191v-187h-191z" />
<glyph unicode="&#xc5;" horiz-adv-x="1052" d="M8 -2l430 1577h178l428 -1577h-200l-80 295h-473l-80 -295h-203zM238 1884v47q0 111 87.5 182.5t202.5 71.5q114 0 200.5 -72t86.5 -182v-47q0 -113 -85.5 -183.5t-201.5 -70.5q-118 0 -204 70t-86 184zM340 477h373l-187 688zM381 1905q0 -79 39.5 -115.5t107.5 -36.5 q65 0 104.5 37.5t39.5 116.5q0 80 -39.5 116.5t-104.5 36.5q-68 0 -107.5 -37.5t-39.5 -117.5z" />
<glyph unicode="&#xc6;" horiz-adv-x="1740" d="M8 -2q83 131 406.5 641.5t498.5 787.5q112 152 430 152h336v-182h-338q-56 0 -98.5 -4.5t-75 -15.5t-55.5 -24t-39 -36.5t-25 -47t-14 -61t-6.5 -72t-1.5 -87.5v-113h653v-184h-653v-566h653v-186h-848v293h-434l-172 -295h-217zM502 477h329v529z" />
<glyph unicode="&#xc7;" horiz-adv-x="1167" d="M82 528v519q0 79 5.5 139t20 117.5t39.5 98.5t63.5 76t92 56.5t126.5 33t165 11.5q109 0 189 -11.5t137 -38.5t93 -64t56.5 -95t28.5 -123t8 -157h-197q0 44 -1.5 73.5t-6.5 62.5t-14 53.5t-25 42t-39 34t-55.5 22.5t-75.5 14.5t-98 4.5q-56 0 -98.5 -4.5t-75 -15.5 t-55.5 -24t-39 -36.5t-25 -47t-14 -61t-6.5 -72t-1.5 -87.5v-523q0 -53 1.5 -87.5t6.5 -72t14 -61t25 -47t39 -36.5t55.5 -24t75 -15.5t98.5 -4.5q76 0 126 4.5t86.5 20.5t56 35t30.5 58.5t13.5 80t2.5 110.5h197q0 -70 -3 -118t-13.5 -102t-29 -89.5t-51 -70.5t-79 -56 t-112.5 -35.5t-152 -17.5q-80 -12 -102.5 -94.5t-22.5 -323.5h-195q0 141 2 204t15 129t40 99q-79 15 -136 46t-92.5 73.5t-56.5 105.5t-28.5 131t-7.5 160z" />
<glyph unicode="&#xc8;" horiz-adv-x="1021" d="M113 -2v1046q0 111 11.5 189t44 147t89 110t147.5 64t220 23h336v-182h-338q-63 0 -110 -6.5t-81.5 -18t-57 -34.5t-36 -46.5t-20.5 -64.5t-9 -79.5t-2 -98.5v-113h545v-184h-545v-566h654v-186h-848zM393 1925l135 109q72 -99 150.5 -141t204.5 -42v-168q-91 0 -153.5 9 t-123 35t-111 74t-102.5 124z" />
<glyph unicode="&#xc9;" horiz-adv-x="1085" d="M113 -2v1046q0 111 11.5 189t44 147t89 110t147.5 64t220 23h336v-182h-338q-63 0 -110 -6.5t-81.5 -18t-57 -34.5t-36 -46.5t-20.5 -64.5t-9 -79.5t-2 -98.5v-113h545v-184h-545v-566h654v-186h-848zM492 1686v167q126 0 203.5 41.5t150.5 141.5l135 -109 q-52 -76 -102 -124t-110.5 -73.5t-123 -34.5t-153.5 -9z" />
<glyph unicode="&#xca;" horiz-adv-x="1044" d="M113 -2v1046q0 111 11.5 189t44 147t89 110t147.5 64t220 23h336v-182h-338q-63 0 -110 -6.5t-81.5 -18t-57 -34.5t-36 -46.5t-20.5 -64.5t-9 -79.5t-2 -98.5v-113h545v-184h-545v-566h654v-186h-848zM266 1718l217 287h230l217 -287l-123 -39l-207 215l-211 -215z" />
<glyph unicode="&#xcb;" horiz-adv-x="1021" d="M113 -2v1046q0 111 11.5 189t44 147t89 110t147.5 64t220 23h336v-182h-338q-63 0 -110 -6.5t-81.5 -18t-57 -34.5t-36 -46.5t-20.5 -64.5t-9 -79.5t-2 -98.5v-113h545v-184h-545v-566h654v-186h-848zM303 1690v186h191v-186h-191zM686 1690v186h191v-186h-191z" />
<glyph unicode="&#xcc;" horiz-adv-x="475" d="M-70 1913l136 108q72 -99 150 -140.5t204 -41.5v-168q-91 0 -153.5 9t-123 35t-111 74t-102.5 124zM137 -2v1577h199v-1577h-199z" />
<glyph unicode="&#xcd;" horiz-adv-x="473" d="M135 -2v1577h199v-1577h-199zM143 1647v168q126 0 204.5 41.5t150.5 140.5l135 -109q-52 -76 -102.5 -124t-111 -73.5t-123 -34.5t-153.5 -9z" />
<glyph unicode="&#xce;" horiz-adv-x="473" d="M-100 1739l235 286h211l217 -286l-123 -39l-207 215l-210 -215zM135 -2v1577h199v-1577h-199z" />
<glyph unicode="&#xcf;" horiz-adv-x="477" d="M-51 1718v187h190v-187h-190zM135 -2v1577h199v-1577h-199zM332 1718v187h190v-187h-190z" />
<glyph unicode="&#xd1;" horiz-adv-x="1357" d="M205 -2v1577h180l475 -1081v1081h195v-1577h-191l-465 1063v-1063h-194zM264 1776q105 127 250 127q55 0 136.5 -34t123.5 -34q56 0 150 61l55 -79q-105 -127 -250 -127q-48 0 -133.5 32.5t-128.5 32.5q-51 0 -148 -59z" />
<glyph unicode="&#xd2;" d="M82 528v519q0 79 5.5 139t20 117.5t39.5 98.5t63.5 76t92 56.5t126.5 33t165 11.5t165 -11.5t126.5 -33t92 -56.5t63.5 -76t39.5 -98.5t20 -117.5t5.5 -139v-519q0 -79 -5.5 -139t-20 -117.5t-39.5 -98.5t-63.5 -76t-92 -56.5t-126.5 -33t-165 -11.5t-165 11.5t-126.5 33 t-92 56.5t-63.5 76t-39.5 98.5t-20 117.5t-5.5 139zM279 526q0 -53 1.5 -87.5t6.5 -72t14 -61t25 -47t39 -36.5t55.5 -24t75 -15.5t98.5 -4.5t98.5 4.5t75 15.5t55.5 24t39 36.5t25 47t14 61t6.5 72t1.5 87.5v523q0 53 -1.5 87.5t-6.5 72t-14 61t-25 47t-39 36.5t-55.5 24 t-75 15.5t-98.5 4.5t-98.5 -4.5t-75 -15.5t-55.5 -24t-39 -36.5t-25 -47t-14 -61t-6.5 -72t-1.5 -87.5v-523zM291 1931l135 109q72 -99 150 -140.5t204 -41.5v-168q-91 0 -153.5 9t-123 34.5t-110.5 73.5t-102 124z" />
<glyph unicode="&#xd3;" d="M82 528v519q0 79 5.5 139t20 117.5t39.5 98.5t63.5 76t92 56.5t126.5 33t165 11.5t165 -11.5t126.5 -33t92 -56.5t63.5 -76t39.5 -98.5t20 -117.5t5.5 -139v-519q0 -79 -5.5 -139t-20 -117.5t-39.5 -98.5t-63.5 -76t-92 -56.5t-126.5 -33t-165 -11.5t-165 11.5t-126.5 33 t-92 56.5t-63.5 76t-39.5 98.5t-20 117.5t-5.5 139zM279 526q0 -53 1.5 -87.5t6.5 -72t14 -61t25 -47t39 -36.5t55.5 -24t75 -15.5t98.5 -4.5t98.5 4.5t75 15.5t55.5 24t39 36.5t25 47t14 61t6.5 72t1.5 87.5v523q0 53 -1.5 87.5t-6.5 72t-14 61t-25 47t-39 36.5t-55.5 24 t-75 15.5t-98.5 4.5t-98.5 -4.5t-75 -15.5t-55.5 -24t-39 -36.5t-25 -47t-14 -61t-6.5 -72t-1.5 -87.5v-523zM567 1655v168q126 0 204.5 41.5t150.5 140.5l135 -109q-52 -76 -102.5 -124t-111 -73.5t-123 -34.5t-153.5 -9z" />
<glyph unicode="&#xd4;" d="M82 528v519q0 79 5.5 139t20 117.5t39.5 98.5t63.5 76t92 56.5t126.5 33t165 11.5t165 -11.5t126.5 -33t92 -56.5t63.5 -76t39.5 -98.5t20 -117.5t5.5 -139v-519q0 -79 -5.5 -139t-20 -117.5t-39.5 -98.5t-63.5 -76t-92 -56.5t-126.5 -33t-165 -11.5t-165 11.5t-126.5 33 t-92 56.5t-63.5 76t-39.5 98.5t-20 117.5t-5.5 139zM258 1677l217 287h230l217 -287l-123 -39l-207 215l-211 -215zM279 526q0 -53 1.5 -87.5t6.5 -72t14 -61t25 -47t39 -36.5t55.5 -24t75 -15.5t98.5 -4.5t98.5 4.5t75 15.5t55.5 24t39 36.5t25 47t14 61t6.5 72t1.5 87.5 v523q0 53 -1.5 87.5t-6.5 72t-14 61t-25 47t-39 36.5t-55.5 24t-75 15.5t-98.5 4.5t-98.5 -4.5t-75 -15.5t-55.5 -24t-39 -36.5t-25 -47t-14 -61t-6.5 -72t-1.5 -87.5v-523z" />
<glyph unicode="&#xd5;" d="M82 528v519q0 79 5.5 139t20 117.5t39.5 98.5t63.5 76t92 56.5t126.5 33t165 11.5t165 -11.5t126.5 -33t92 -56.5t63.5 -76t39.5 -98.5t20 -117.5t5.5 -139v-519q0 -79 -5.5 -139t-20 -117.5t-39.5 -98.5t-63.5 -76t-92 -56.5t-126.5 -33t-165 -11.5t-165 11.5t-126.5 33 t-92 56.5t-63.5 76t-39.5 98.5t-20 117.5t-5.5 139zM225 1829q105 127 250 127q55 0 136.5 -34t123.5 -34q54 0 150 62l55 -80q-105 -127 -250 -127q-48 0 -133.5 32.5t-128.5 32.5q-50 0 -147 -59zM279 526q0 -53 1.5 -87.5t6.5 -72t14 -61t25 -47t39 -36.5t55.5 -24 t75 -15.5t98.5 -4.5t98.5 4.5t75 15.5t55.5 24t39 36.5t25 47t14 61t6.5 72t1.5 87.5v523q0 53 -1.5 87.5t-6.5 72t-14 61t-25 47t-39 36.5t-55.5 24t-75 15.5t-98.5 4.5t-98.5 -4.5t-75 -15.5t-55.5 -24t-39 -36.5t-25 -47t-14 -61t-6.5 -72t-1.5 -87.5v-523z" />
<glyph unicode="&#xd6;" d="M82 528v519q0 79 5.5 139t20 117.5t39.5 98.5t63.5 76t92 56.5t126.5 33t165 11.5t165 -11.5t126.5 -33t92 -56.5t63.5 -76t39.5 -98.5t20 -117.5t5.5 -139v-519q0 -79 -5.5 -139t-20 -117.5t-39.5 -98.5t-63.5 -76t-92 -56.5t-126.5 -33t-165 -11.5t-165 11.5t-126.5 33 t-92 56.5t-63.5 76t-39.5 98.5t-20 117.5t-5.5 139zM279 526q0 -53 1.5 -87.5t6.5 -72t14 -61t25 -47t39 -36.5t55.5 -24t75 -15.5t98.5 -4.5t98.5 4.5t75 15.5t55.5 24t39 36.5t25 47t14 61t6.5 72t1.5 87.5v523q0 53 -1.5 87.5t-6.5 72t-14 61t-25 47t-39 36.5t-55.5 24 t-75 15.5t-98.5 4.5t-98.5 -4.5t-75 -15.5t-55.5 -24t-39 -36.5t-25 -47t-14 -61t-6.5 -72t-1.5 -87.5v-523zM309 1683v187h191v-187h-191zM692 1683v187h191v-187h-191z" />
<glyph unicode="&#xd7;" horiz-adv-x="1247" d="M180 371l232 231l-232 232l137 137l232 -232l231 232l135 -137l-231 -232l231 -231l-135 -138l-231 232l-232 -232z" />
<glyph unicode="&#xd8;" d="M82 528v519q0 79 5.5 139t20 117.5t39.5 98.5t63.5 76t92 56.5t126.5 33t165 11.5q45 0 111 -4l43 156h202l-55 -201q122 -55 166.5 -170.5t44.5 -312.5v-519q0 -79 -5.5 -139t-20 -117.5t-39.5 -98.5t-63.5 -76t-92 -56.5t-126.5 -33t-165 -11.5q-43 0 -109 4l-49 -188 h-203l62 231q-123 54 -168 170t-45 315zM279 526q0 -123 12.5 -188t54.5 -102l311 1159q-10 0 -30.5 1t-32.5 1q-56 0 -98.5 -4.5t-75 -15.5t-55.5 -24t-39 -36.5t-25 -47t-14 -61t-6.5 -72t-1.5 -87.5v-523zM535 180q18 -2 59 -2q56 0 98.5 4.5t75 15.5t55.5 24t39 36.5 t25 47t14 61t6.5 72t1.5 87.5v523q0 120 -12 184.5t-53 101.5z" />
<glyph unicode="&#xd9;" horiz-adv-x="1249" d="M113 528v1047h196v-1049q0 -60 2 -98.5t9 -79.5t20.5 -64.5t36 -46.5t57 -34.5t81.5 -18t110 -6.5q56 0 98.5 4.5t75 15.5t55.5 24t39 36.5t25 47t14 61t6.5 72t1.5 87.5v1051h197v-1049q0 -79 -5.5 -139t-20 -117.5t-39.5 -98.5t-63.5 -76t-92 -56.5t-126.5 -33 t-165 -11.5t-165 11.5t-126.5 33t-92 56.5t-63.5 76t-39.5 98.5t-20 117.5t-5.5 139zM311 1888l135 109q72 -99 150.5 -140.5t204.5 -41.5v-168q-91 0 -153.5 9t-123 34.5t-111 73.5t-102.5 124z" />
<glyph unicode="&#xda;" horiz-adv-x="1280" d="M113 528v1047h196v-1049q0 -60 2 -98.5t9 -79.5t20.5 -64.5t36 -46.5t57 -34.5t81.5 -18t110 -6.5q56 0 98.5 4.5t75 15.5t55.5 24t39 36.5t25 47t14 61t6.5 72t1.5 87.5v1051h197v-1049q0 -79 -5.5 -139t-20 -117.5t-39.5 -98.5t-63.5 -76t-92 -56.5t-126.5 -33 t-165 -11.5t-165 11.5t-126.5 33t-92 56.5t-63.5 76t-39.5 98.5t-20 117.5t-5.5 139zM678 1673v168q126 0 204 41.5t150 140.5l135 -108q-52 -76 -102 -124t-110.5 -74t-123 -35t-153.5 -9z" />
<glyph unicode="&#xdb;" horiz-adv-x="1249" d="M113 528v1047h196v-1049q0 -60 2 -98.5t9 -79.5t20.5 -64.5t36 -46.5t57 -34.5t81.5 -18t110 -6.5q56 0 98.5 4.5t75 15.5t55.5 24t39 36.5t25 47t14 61t6.5 72t1.5 87.5v1051h197v-1049q0 -79 -5.5 -139t-20 -117.5t-39.5 -98.5t-63.5 -76t-92 -56.5t-126.5 -33 t-165 -11.5t-165 11.5t-126.5 33t-92 56.5t-63.5 76t-39.5 98.5t-20 117.5t-5.5 139zM330 1733l217 286h229l217 -286l-123 -39l-206 215l-211 -215z" />
<glyph unicode="&#xdc;" horiz-adv-x="1249" d="M113 528v1047h196v-1049q0 -60 2 -98.5t9 -79.5t20.5 -64.5t36 -46.5t57 -34.5t81.5 -18t110 -6.5q56 0 98.5 4.5t75 15.5t55.5 24t39 36.5t25 47t14 61t6.5 72t1.5 87.5v1051h197v-1049q0 -79 -5.5 -139t-20 -117.5t-39.5 -98.5t-63.5 -76t-92 -56.5t-126.5 -33 t-165 -11.5t-165 11.5t-126.5 33t-92 56.5t-63.5 76t-39.5 98.5t-20 117.5t-5.5 139zM346 1714v187h191v-187h-191zM729 1714v187h191v-187h-191z" />
<glyph unicode="&#xdf;" horiz-adv-x="1177" d="M113 -414v1585q0 173 127.5 289.5t314.5 116.5q165 0 283 -120t118 -286v-26q0 -157 -110 -273q107 -19 183.5 -122t76.5 -230v-137q0 -165 -123.5 -285.5t-288.5 -120.5h-200v189h188q97 0 163 76t66 182v57q0 106 -66 182t-163 76h-338v187h188l-8 4q236 0 236 215v26 q0 88 -68 154t-157 66q-97 0 -162.5 -63t-65.5 -159v-1583h-194z" />
<glyph unicode="&#xe0;" horiz-adv-x="1126" d="M92 406v382q0 199 117 298.5t315 99.5h416v-852q0 -71 24 -92.5t99 -26.5v-221q-53 0 -94 6t-79 21.5t-63.5 45t-38.5 72.5q-56 -70 -123.5 -107.5t-185.5 -37.5q-203 0 -295 102.5t-92 309.5zM289 428q0 -140 42.5 -196t147.5 -56q135 0 200.5 68t65.5 245v512h-229 q-126 0 -176.5 -58t-50.5 -193v-322zM328 1571l135 108q72 -99 150 -140.5t204 -41.5v-168q-91 0 -153.5 9t-123 35t-110.5 74t-102 124z" />
<glyph unicode="&#xe1;" horiz-adv-x="1126" d="M92 406v382q0 199 117 298.5t315 99.5h416v-852q0 -71 24 -92.5t99 -26.5v-221q-53 0 -94 6t-79 21.5t-63.5 45t-38.5 72.5q-56 -70 -123.5 -107.5t-185.5 -37.5q-203 0 -295 102.5t-92 309.5zM289 428q0 -140 42.5 -196t147.5 -56q135 0 200.5 68t65.5 245v512h-229 q-126 0 -176.5 -58t-50.5 -193v-322zM416 1321v168q126 0 204 41.5t150 140.5l135 -108q-52 -76 -102 -124t-110.5 -74t-123 -35t-153.5 -9z" />
<glyph unicode="&#xe2;" horiz-adv-x="1126" d="M92 406v382q0 199 117 298.5t315 99.5h416v-852q0 -71 24 -92.5t99 -26.5v-221q-53 0 -94 6t-79 21.5t-63.5 45t-38.5 72.5q-56 -70 -123.5 -107.5t-185.5 -37.5q-203 0 -295 102.5t-92 309.5zM260 1368l217 287h230l217 -287l-123 -39l-207 215l-211 -215zM289 428 q0 -140 42.5 -196t147.5 -56q135 0 200.5 68t65.5 245v512h-229q-126 0 -176.5 -58t-50.5 -193v-322z" />
<glyph unicode="&#xe3;" horiz-adv-x="1126" d="M92 406v382q0 199 117 298.5t315 99.5h416v-852q0 -71 24 -92.5t99 -26.5v-221q-53 0 -94 6t-79 21.5t-63.5 45t-38.5 72.5q-56 -70 -123.5 -107.5t-185.5 -37.5q-203 0 -295 102.5t-92 309.5zM203 1434q105 127 250 127q55 0 136.5 -34t123.5 -34q55 0 149 61l56 -79 q-105 -127 -250 -127q-48 0 -133.5 32.5t-128.5 32.5q-51 0 -148 -59zM289 428q0 -140 42.5 -196t147.5 -56q135 0 200.5 68t65.5 245v512h-229q-126 0 -176.5 -58t-50.5 -193v-322z" />
<glyph unicode="&#xe4;" horiz-adv-x="1126" d="M92 406v382q0 199 117 298.5t315 99.5h416v-852q0 -71 24 -92.5t99 -26.5v-221q-53 0 -94 6t-79 21.5t-63.5 45t-38.5 72.5q-56 -70 -123.5 -107.5t-185.5 -37.5q-203 0 -295 102.5t-92 309.5zM254 1333v187h190v-187h-190zM289 428q0 -140 42.5 -196t147.5 -56 q135 0 200.5 68t65.5 245v512h-229q-126 0 -176.5 -58t-50.5 -193v-322zM637 1333v187h190v-187h-190z" />
<glyph unicode="&#xe5;" horiz-adv-x="1126" d="M92 406v382q0 199 117 298.5t315 99.5h416v-852q0 -71 24 -92.5t99 -26.5v-221q-53 0 -94 6t-79 21.5t-63.5 45t-38.5 72.5q-56 -70 -123.5 -107.5t-185.5 -37.5q-203 0 -295 102.5t-92 309.5zM287 1567v47q0 111 87.5 182.5t203.5 71.5q113 0 199.5 -72t86.5 -182v-47 q0 -113 -85.5 -183.5t-200.5 -70.5q-118 0 -204.5 70t-86.5 184zM289 428q0 -140 42.5 -196t147.5 -56q135 0 200.5 68t65.5 245v512h-229q-126 0 -176.5 -58t-50.5 -193v-322zM430 1587q0 -79 40 -115t108 -36q65 0 104 37t39 116q0 80 -39 117t-104 37q-68 0 -108 -38 t-40 -118z" />
<glyph unicode="&#xe6;" horiz-adv-x="1718" d="M92 406v382q0 199 117 298.5t315 99.5h416v-23q104 49 254 49q212 0 330 -109.5t118 -338.5v-248h-702v-86q0 -81 14.5 -133t48 -80.5t78 -39.5t113.5 -11q145 0 199.5 54.5t54.5 187.5h194q0 -229 -99.5 -328.5t-348.5 -99.5q-153 0 -247.5 38t-143.5 123 q-62 -73 -135 -110t-189 -37q-203 0 -295 102.5t-92 309.5zM289 428q0 -140 42.5 -196t147.5 -56q135 0 200.5 68t65.5 245v512h-229q-126 0 -176.5 -58t-50.5 -193v-322zM940 698h508v66q0 155 -59 211.5t-195 56.5q-68 0 -111.5 -8.5t-78 -33.5t-49.5 -72.5t-15 -122.5 v-97z" />
<glyph unicode="&#xe7;" horiz-adv-x="1060" d="M92 436v340q0 229 116 332.5t333 103.5q215 0 331.5 -109.5t116.5 -340.5h-194q0 157 -58.5 213.5t-195.5 56.5q-70 0 -114 -9.5t-77.5 -37t-48 -78t-14.5 -131.5v-340q0 -157 58.5 -213.5t195.5 -56.5q69 0 113.5 11t78 39.5t48 80.5t14.5 133h194q0 -235 -94 -338 t-315 -110q-79 -13 -101 -96t-22 -322h-195q0 209 11.5 302t56.5 140q-126 39 -182 142t-56 288z" />
<glyph unicode="&#xe8;" horiz-adv-x="1064" d="M92 430v348q0 229 116 331.5t333 102.5q212 0 330 -109.5t118 -338.5v-248h-702v-86q0 -81 14.5 -133t48 -80.5t78 -39.5t113.5 -11q145 0 199.5 54.5t54.5 187.5h194q0 -229 -99.5 -328.5t-348.5 -99.5q-243 0 -346 103t-103 347zM287 698h508v66q0 155 -59 211.5 t-195 56.5q-70 0 -114 -9.5t-77.5 -36t-48 -77t-14.5 -131.5v-80zM303 1571l135 108q72 -99 150.5 -140.5t204.5 -41.5v-168q-91 0 -153.5 9t-123 35t-111 74t-102.5 124z" />
<glyph unicode="&#xe9;" horiz-adv-x="1064" d="M92 430v348q0 229 116 331.5t333 102.5q212 0 330 -109.5t118 -338.5v-248h-702v-86q0 -81 14.5 -133t48 -80.5t78 -39.5t113.5 -11q145 0 199.5 54.5t54.5 187.5h194q0 -229 -99.5 -328.5t-348.5 -99.5q-243 0 -346 103t-103 347zM287 698h508v66q0 155 -59 211.5 t-195 56.5q-70 0 -114 -9.5t-77.5 -36t-48 -77t-14.5 -131.5v-80zM426 1321v168q126 0 204 41.5t150 140.5l135 -108q-52 -76 -102 -124t-110.5 -74t-123 -35t-153.5 -9z" />
<glyph unicode="&#xea;" horiz-adv-x="1064" d="M92 430v348q0 229 116 331.5t333 102.5q212 0 330 -109.5t118 -338.5v-248h-702v-86q0 -81 14.5 -133t48 -80.5t78 -39.5t113.5 -11q145 0 199.5 54.5t54.5 187.5h194q0 -229 -99.5 -328.5t-348.5 -99.5q-243 0 -346 103t-103 347zM197 1368l217 287h229l217 -287 l-123 -39l-207 215l-211 -215zM287 698h508v66q0 155 -59 211.5t-195 56.5q-70 0 -114 -9.5t-77.5 -36t-48 -77t-14.5 -131.5v-80z" />
<glyph unicode="&#xeb;" horiz-adv-x="1064" d="M92 430v348q0 229 116 331.5t333 102.5q212 0 330 -109.5t118 -338.5v-248h-702v-86q0 -81 14.5 -133t48 -80.5t78 -39.5t113.5 -11q145 0 199.5 54.5t54.5 187.5h194q0 -229 -99.5 -328.5t-348.5 -99.5q-243 0 -346 103t-103 347zM244 1331v187h190v-187h-190zM287 698 h508v66q0 155 -59 211.5t-195 56.5q-70 0 -114 -9.5t-77.5 -36t-48 -77t-14.5 -131.5v-80zM627 1331v187h190v-187h-190z" />
<glyph unicode="&#xec;" horiz-adv-x="468" d="M-90 1571l135 108q72 -99 150 -140.5t204 -41.5v-168q-91 0 -153.5 9t-123 35t-110.5 74t-102 124zM135 -2v1188h195v-1188h-195z" />
<glyph unicode="&#xed;" horiz-adv-x="473" d="M137 -2v1188h195v-1188h-195zM168 1323v168q126 0 204 41.5t150 140.5l135 -108q-52 -76 -102 -124t-110.5 -74t-123 -35t-153.5 -9z" />
<glyph unicode="&#xee;" horiz-adv-x="473" d="M-104 1368l243 287h203l217 -287l-123 -39l-207 215l-211 -215zM139 -2v1188h195v-1188h-195z" />
<glyph unicode="&#xef;" horiz-adv-x="471" d="M-68 1331v187h205l-14 -187h-191zM137 -2v1188h195v-1188h-195zM315 1331v187h191v-187h-191z" />
<glyph unicode="&#xf1;" horiz-adv-x="1173" d="M51 1020v188q122 0 184 -29t93 -112q60 79 143 112t205 33q113 0 186.5 -18.5t124.5 -65.5t72.5 -126t21.5 -201v-801h-196v778q0 143 -52.5 197.5t-185.5 54.5q-140 0 -200 -57t-60 -193v-780h-197v883q0 87 -24 109t-115 28zM268 1434q105 127 250 127q55 0 136.5 -34 t123.5 -34q56 0 150 61l55 -79q-105 -127 -250 -127q-48 0 -133.5 32.5t-128.5 32.5q-50 0 -147 -59z" />
<glyph unicode="&#xf2;" horiz-adv-x="1081" d="M92 436v342q0 228 115.5 329t333.5 101t333 -101t115 -329v-342q0 -245 -103 -350.5t-345 -105.5t-345.5 105.5t-103.5 350.5zM252 1571l135 108q72 -99 150 -140.5t204 -41.5v-168q-91 0 -153.5 9t-123 35t-110.5 74t-102 124zM287 436q0 -157 58.5 -213.5t195.5 -56.5 t195.5 56.5t58.5 213.5v342q0 81 -14.5 130.5t-48.5 76t-77 35t-114 8.5t-114 -8.5t-77 -35t-48.5 -76t-14.5 -130.5v-342z" />
<glyph unicode="&#xf3;" horiz-adv-x="1081" d="M92 436v342q0 228 115.5 329t333.5 101t333 -101t115 -329v-342q0 -245 -103 -350.5t-345 -105.5t-345.5 105.5t-103.5 350.5zM287 436q0 -157 58.5 -213.5t195.5 -56.5t195.5 56.5t58.5 213.5v342q0 81 -14.5 130.5t-48.5 76t-77 35t-114 8.5t-114 -8.5t-77 -35 t-48.5 -76t-14.5 -130.5v-342zM432 1321v168q126 0 204 41.5t150 140.5l136 -108q-52 -76 -102.5 -124t-111 -74t-123 -35t-153.5 -9z" />
<glyph unicode="&#xf4;" horiz-adv-x="1081" d="M92 436v342q0 228 115.5 329t333.5 101t333 -101t115 -329v-342q0 -245 -103 -350.5t-345 -105.5t-345.5 105.5t-103.5 350.5zM207 1368l217 287h229l217 -287l-122 -39l-207 215l-211 -215zM287 436q0 -157 58.5 -213.5t195.5 -56.5t195.5 56.5t58.5 213.5v342 q0 81 -14.5 130.5t-48.5 76t-77 35t-114 8.5t-114 -8.5t-77 -35t-48.5 -76t-14.5 -130.5v-342z" />
<glyph unicode="&#xf5;" horiz-adv-x="1081" d="M92 436v342q0 228 115.5 329t333.5 101t333 -101t115 -329v-342q0 -245 -103 -350.5t-345 -105.5t-345.5 105.5t-103.5 350.5zM178 1436q105 127 250 127q55 0 136.5 -34t123.5 -34q56 0 150 61l55 -79q-105 -127 -250 -127q-48 0 -133.5 32.5t-128.5 32.5 q-51 0 -148 -59zM287 436q0 -157 58.5 -213.5t195.5 -56.5t195.5 56.5t58.5 213.5v342q0 81 -14.5 130.5t-48.5 76t-77 35t-114 8.5t-114 -8.5t-77 -35t-48.5 -76t-14.5 -130.5v-342z" />
<glyph unicode="&#xf6;" horiz-adv-x="1081" d="M92 436v342q0 228 115.5 329t333.5 101t333 -101t115 -329v-342q0 -245 -103 -350.5t-345 -105.5t-345.5 105.5t-103.5 350.5zM240 1331v187h190v-187h-190zM287 436q0 -157 58.5 -213.5t195.5 -56.5t195.5 56.5t58.5 213.5v342q0 81 -14.5 130.5t-48.5 76t-77 35 t-114 8.5t-114 -8.5t-77 -35t-48.5 -76t-14.5 -130.5v-342zM623 1331v187h190v-187h-190z" />
<glyph unicode="&#xf7;" horiz-adv-x="991" d="M51 508v197h848v-197h-848zM375 139v195h194v-195h-194zM375 922v194h194v-194h-194z" />
<glyph unicode="&#xf8;" horiz-adv-x="1081" d="M92 436v342q0 228 115.5 329t333.5 101q33 0 49 -2l43 158l203 2l-56 -201q209 -90 209 -387v-342q0 -245 -103 -350.5t-345 -105.5q-30 0 -80 4l-53 -197h-203l65 244q-93 47 -135.5 145.5t-42.5 259.5zM287 436q0 -133 41 -194l213 786q-71 0 -114 -8.5t-77 -35 t-48.5 -76t-14.5 -130.5v-342zM510 166h31q137 0 195.5 56.5t58.5 213.5v342q0 155 -64 207z" />
<glyph unicode="&#xf9;" horiz-adv-x="1071" d="M82 432v754h194v-754q0 -81 14.5 -133t47.5 -81.5t78 -40.5t114 -11t114 11t78 40.5t47.5 81.5t14.5 133v754h195v-754q0 -245 -103 -348.5t-346 -103.5t-345.5 103.5t-102.5 348.5z" />
<glyph unicode="&#xfa;" horiz-adv-x="1071" d="M82 432v754h194v-754q0 -81 14.5 -133t47.5 -81.5t78 -40.5t114 -11t114 11t78 40.5t47.5 81.5t14.5 133v754h195v-754q0 -245 -103 -348.5t-346 -103.5t-345.5 103.5t-102.5 348.5zM446 1323v168q126 0 204.5 41.5t150.5 140.5l135 -108q-52 -76 -102.5 -124t-111 -74 t-123 -35t-153.5 -9z" />
<glyph unicode="&#xfb;" horiz-adv-x="1071" d="M82 432v754h194v-754q0 -81 14.5 -133t47.5 -81.5t78 -40.5t114 -11t114 11t78 40.5t47.5 81.5t14.5 133v754h195v-754q0 -245 -103 -348.5t-346 -103.5t-345.5 103.5t-102.5 348.5zM182 1368l217 287h230l217 -287l-123 -39l-207 215l-211 -215z" />
<glyph unicode="&#xfc;" horiz-adv-x="1071" d="M82 432v754h194v-754q0 -81 14.5 -133t47.5 -81.5t78 -40.5t114 -11t114 11t78 40.5t47.5 81.5t14.5 133v754h195v-754q0 -245 -103 -348.5t-346 -103.5t-345.5 103.5t-102.5 348.5zM223 1331v187h191v-187h-191zM606 1331v187h191v-187h-191z" />
<glyph unicode="&#xff;" horiz-adv-x="1071" d="M82 580v614h192l2 -614q0 -157 58.5 -214t195.5 -57t195.5 57t58.5 214v614h195v-1112q0 -134 -24 -221.5t-79.5 -140.5t-137.5 -74t-208 -21h-278v187h278q99 0 151.5 22.5t77.5 80.5t25 167v84q-98 -43 -254 -43q-242 0 -345 106t-103 351zM262 1389v186h191v-186h-191 zM645 1389v186h191v-186h-191z" />
<glyph unicode="&#x152;" horiz-adv-x="1751" d="M82 397v783q0 112 58 204.5t155 144.5t211 52h108q201 0 328 -145q126 141 367 141h381v-184h-424q-86 0 -151 -62t-77 -151v-246h652v-184h-652v-377q-2 -10 -2 -25v-166h654v-184l-1076 -4h-108q-173 0 -298.5 115.5t-125.5 287.5zM276 436q0 -105 67.5 -180.5 t162.5 -75.5h108q89 0 151.5 60t76.5 153v789q-14 94 -76.5 154.5t-151.5 60.5h-108q-100 0 -165 -77t-65 -179v-705z" />
<glyph unicode="&#x153;" horiz-adv-x="1769" d="M92 436v342q0 228 115.5 329t333.5 101q240 0 350 -118q111 122 354 122q212 0 330.5 -110t118.5 -338v-248h-703v-86q0 -81 14.5 -133t48 -80.5t78 -39.5t113.5 -11q145 0 199.5 54.5t54.5 187.5h195q0 -229 -100 -328.5t-349 -99.5q-252 0 -354 110 q-104 -110 -350 -110q-242 0 -345.5 105.5t-103.5 350.5zM287 436q0 -157 58.5 -213.5t195.5 -56.5t195.5 56.5t58.5 213.5v342q0 81 -14.5 130.5t-48.5 76t-77 35t-114 8.5t-114 -8.5t-77 -35t-48.5 -76t-14.5 -130.5v-342zM991 698h508v66q0 155 -59 211.5t-195 56.5 q-70 0 -114 -9.5t-77.5 -36t-48 -77t-14.5 -131.5v-80z" />
<glyph unicode="&#x178;" horiz-adv-x="923" d="M8 1575h211l244 -549l242 549h210l-356 -807v-770h-194v770zM174 1683v187h191v-187h-191zM557 1683v187h191v-187h-191z" />
<glyph unicode="&#x2c6;" horiz-adv-x="749" d="M43 1368l217 287h229l218 -287l-123 -39l-207 215l-211 -215z" />
<glyph unicode="&#x2dc;" horiz-adv-x="794" d="M35 1475q105 127 250 127q55 0 136.5 -34t123.5 -34q55 0 149 61l56 -79q-105 -127 -250 -127q-48 0 -133.5 32.5t-128.5 32.5q-51 0 -148 -59z" />
<glyph unicode="&#x2000;" horiz-adv-x="1092" />
<glyph unicode="&#x2001;" horiz-adv-x="2185" />
<glyph unicode="&#x2002;" horiz-adv-x="1092" />
<glyph unicode="&#x2003;" horiz-adv-x="2185" />
<glyph unicode="&#x2004;" horiz-adv-x="728" />
<glyph unicode="&#x2005;" horiz-adv-x="546" />
<glyph unicode="&#x2006;" horiz-adv-x="364" />
<glyph unicode="&#x2007;" horiz-adv-x="364" />
<glyph unicode="&#x2008;" horiz-adv-x="273" />
<glyph unicode="&#x2009;" horiz-adv-x="437" />
<glyph unicode="&#x200a;" horiz-adv-x="121" />
<glyph unicode="&#x2010;" horiz-adv-x="1024" d="M47 508v197h848v-197h-848z" />
<glyph unicode="&#x2011;" horiz-adv-x="1024" d="M47 508v197h848v-197h-848z" />
<glyph unicode="&#x2012;" horiz-adv-x="1024" d="M47 508v197h848v-197h-848z" />
<glyph unicode="&#x2013;" horiz-adv-x="942" d="M72 657v183h839v-183h-839z" />
<glyph unicode="&#x2014;" horiz-adv-x="1241" d="M72 657v183h1138v-183h-1138z" />
<glyph unicode="&#x2018;" horiz-adv-x="380" d="M31 1180q0 197 52.5 309t192.5 172l95 -119q-93 -70 -119.5 -146t-26.5 -216h-194z" />
<glyph unicode="&#x2019;" horiz-adv-x="380" d="M31 1298q93 70 119 146t26 217h195q0 -196 -53 -308.5t-193 -172.5z" />
<glyph unicode="&#x201a;" horiz-adv-x="380" d="M10 -27q93 70 119.5 146.5t26.5 216.5h194q0 -196 -53 -308.5t-193 -172.5z" />
<glyph unicode="&#x201c;" horiz-adv-x="759" d="M10 1180q0 196 53 308.5t193 172.5l94 -119q-93 -70 -119 -145.5t-26 -216.5h-195zM389 1180q0 196 53 308.5t193 172.5l94 -119q-93 -70 -119 -145.5t-26 -216.5h-195z" />
<glyph unicode="&#x201d;" horiz-adv-x="759" d="M31 1298q93 70 119 146t26 217h195q0 -196 -53 -308.5t-193 -172.5zM410 1298q93 70 119 146t26 217h195q0 -196 -53 -308.5t-193 -172.5z" />
<glyph unicode="&#x201e;" horiz-adv-x="759" d="M10 -27q93 70 119.5 146.5t26.5 216.5h194q0 -196 -53 -308.5t-193 -172.5zM389 -27q93 70 119.5 146.5t26.5 216.5h194q0 -196 -53 -308.5t-193 -172.5z" />
<glyph unicode="&#x2022;" horiz-adv-x="516" d="M51 780v68q0 72 59 122t138 50t137.5 -50t58.5 -122v-68q0 -74 -57.5 -124t-138.5 -50t-139 50t-58 124z" />
<glyph unicode="&#x2026;" horiz-adv-x="1083" d="M51 -4v197h195v-197h-195zM424 -4v197h194v-197h-194zM797 -4v197h194v-197h-194z" />
<glyph unicode="&#x202f;" horiz-adv-x="437" />
<glyph unicode="&#x2039;" horiz-adv-x="698" d="M51 369v206l320 289h235l-416 -391l416 -393h-235z" />
<glyph unicode="&#x203a;" horiz-adv-x="698" d="M92 80l416 393l-416 391h236l319 -289v-206l-319 -289h-236z" />
<glyph unicode="&#x205f;" horiz-adv-x="546" />
<glyph unicode="&#x20ac;" horiz-adv-x="1306" d="M82 586v162h139v86h-139v161h139v52q0 79 5.5 139t20 117.5t39.5 98.5t63.5 76t92 56.5t126.5 33t165 11.5t165 -11.5t126.5 -33t92 -56.5t63.5 -76t39.5 -98.5t20 -117.5t5.5 -139h-196q0 61 -2 99.5t-9 79.5t-20.5 65t-36 47t-57 34.5t-81.5 18t-110 6.5 q-56 0 -98.5 -4.5t-75 -15.5t-55.5 -24t-39 -36.5t-25 -47t-14 -61t-6.5 -72t-1.5 -87.5v-54h598v-161h-598v-86h598v-162h-598v-60q0 -53 1.5 -87.5t6.5 -72t14 -61t25 -47t39 -36.5t55.5 -24t75 -15.5t98.5 -4.5t98.5 4.5t75.5 15.5t56 24.5t39 37.5t25 47t14 61t6.5 72.5 t1.5 87.5h196q0 -79 -5.5 -139t-20 -117.5t-39.5 -98.5t-63.5 -76t-92 -56.5t-126.5 -33t-165 -11.5t-165 11.5t-126.5 33t-92 56.5t-63.5 76t-39.5 98.5t-20 117.5t-5.5 139v58h-139z" />
<glyph unicode="&#x2122;" horiz-adv-x="948" d="M51 1561v71h338v-71h-129v-555h-80v555h-129zM451 1004v630h108l94 -348l97 348h106v-630h-78v444l-88 -328h-72l-88 328v-444h-79z" />
<glyph unicode="&#xe000;" horiz-adv-x="1198" d="M0 0v1198h1198v-1198h-1198z" />
</font>
</defs>
</svg>
